<?xml version="1.0" encoding="UTF-8" standalone="no"?><!DOCTYPE svg PUBLIC "-//W3C//DTD SVG 1.1//EN" "http://www.w3.org/Graphics/SVG/1.1/DTD/svg11.dtd"><svg width="100px" height="100px" version="1.1" preserveAspectRatio="none" xmlns="http://www.w3.org/2000/svg" xmlns:xlink="http://www.w3.org/1999/xlink" xml:space="preserve" xmlns:serif="http://www.serif.com/" style="fill-rule:evenodd;clip-rule:evenodd;stroke-linejoin:round;stroke-miterlimit:1.41421;"><g transform="matrix(1,0,0,1,-180.95,-2831.98)"><g id="Diamond-v6" serif:id="Diamond v6" transform="matrix(2.24317,0,0,4.45454,3.41061e-13,2166.41)"><rect x="0" y="0" width="245.188" height="246.939" style="fill:none;"/><g transform="matrix(1,0,0,1,-68.6748,44.898)"><g transform="matrix(0.297198,0,0,0.14966,111.084,-288.239)"><rect x="128.73" y="2774.32" width="150" height="150" style="fill:rgb(241,241,241);"/></g><g transform="matrix(1.29544,0,0,0.652343,-90.1063,-1695.12)"><rect x="184.84" y="2793.14" width="17.206" height="17.206" style="fill:rgb(72,72,72);"/></g></g><g transform="matrix(1,0,0,1,-68.6748,22.449)"><g transform="matrix(0.297198,0,0,0.14966,111.084,-288.239)"><rect x="128.73" y="2774.32" width="150" height="150" style="fill:rgb(241,241,241);"/></g><g transform="matrix(1.29544,0,0,0.652343,-90.1063,-1695.12)"><rect x="184.84" y="2793.14" width="17.206" height="17.206" style="fill:rgb(163,163,163);"/></g><g transform="matrix(1.29544,0,0,0.652343,-67.8165,-1683.9)"><rect x="184.84" y="2793.14" width="17.206" height="17.206" style="fill:rgb(163,163,163);"/></g></g></g></g></svg>
