<?xml version="1.0" encoding="UTF-8" standalone="no"?><!DOCTYPE svg PUBLIC "-//W3C//DTD SVG 1.1//EN" "http://www.w3.org/Graphics/SVG/1.1/DTD/svg11.dtd"><svg width="200px" height="200px" version="1.1" preserveAspectRatio="none" xmlns="http://www.w3.org/2000/svg" xmlns:xlink="http://www.w3.org/1999/xlink" xml:space="preserve" xmlns:serif="http://www.serif.com/" style="fill-rule:evenodd;clip-rule:evenodd;stroke-linejoin:round;stroke-miterlimit:1.41421;"><g transform="matrix(1,0,0,1,-1053.87,-2208.26)"><g id="transparent-patterns" serif:id="transparent patterns" transform="matrix(1,0,0,1,-279.458,76.1663)"><rect x="917.187" y="2090.25" width="891.394" height="1100" style="fill:none;"/><g id="transparent-pattern" transform="matrix(2.24317,0,0,4.45454,998.323,1566.52)"><g transform="matrix(0.594396,0,0,0.29932,72.8257,-703.444)"><rect x="128.73" y="2774.32" width="150" height="150" style="fill:rgb(163,163,163);"/></g><g transform="matrix(1.29544,0,0,0.652343,-90.1063,-1695.12)"><rect x="184.84" y="2793.14" width="17.206" height="17.206" style="fill:rgb(241,241,241);"/></g><g transform="matrix(1.29544,0,0,0.652343,-45.5267,-1695.12)"><rect x="184.84" y="2793.14" width="17.206" height="17.206" style="fill:rgb(241,241,241);"/></g><g transform="matrix(1.29544,0,0,0.652343,-67.8165,-1683.9)"><rect x="184.84" y="2793.14" width="17.206" height="17.206" style="fill:rgb(241,241,241);"/></g><g transform="matrix(1.29544,0,0,0.652343,-90.065,-1672.67)"><rect x="184.84" y="2793.14" width="17.206" height="17.206" style="fill:rgb(241,241,241);"/></g><g transform="matrix(1.29544,0,0,0.652343,-45.5267,-1672.67)"><rect x="184.84" y="2793.14" width="17.206" height="17.206" style="fill:rgb(241,241,241);"/></g><g transform="matrix(1.29544,0,0,0.652343,-67.8165,-1661.45)"><rect x="184.84" y="2793.14" width="17.206" height="17.206" style="fill:rgb(241,241,241);"/></g><g transform="matrix(1.29544,0,0,0.652343,-23.2368,-1661.45)"><rect x="184.84" y="2793.14" width="17.206" height="17.206" style="fill:rgb(241,241,241);"/></g><g transform="matrix(1.29544,0,0,0.652343,-23.2368,-1683.9)"><rect x="184.84" y="2793.14" width="17.206" height="17.206" style="fill:rgb(241,241,241);"/></g></g></g></g></svg>
